<?xml version="1.0" encoding="us-ascii" standalone="no"?><svg xmlns="http://www.w3.org/2000/svg" xmlns:xlink="http://www.w3.org/1999/xlink" contentStyleType="text/css" height="1864px" preserveAspectRatio="none" style="width:1598px;height:1864px;background:#FFFFFF;" version="1.1" viewBox="0 0 1598 1864" width="1598px" zoomAndPan="magnify"><defs/><g><text fill="#000000" font-family="Verdana" font-size="22" font-weight="bold" lengthAdjust="spacing" textLength="458" x="568.75" y="37.1182">SuperLottoNumberGenerator &#25511;&#21046;&#27969;&#22270;</text><rect fill="#FFFFFF" height="163.7959" style="stroke:#000000;stroke-width:1.0;" width="10" x="621.5" y="376.9458"/><rect fill="#FFFFFF" height="451.5591" style="stroke:#000000;stroke-width:1.0;" width="10" x="621.5" y="805.1362"/><rect fill="#FFFFFF" height="390.1611" style="stroke:#000000;stroke-width:1.0;" width="10" x="621.5" y="1381.8926"/><rect fill="#FFFFFF" height="88.3979" style="stroke:#000000;stroke-width:1.0;" width="10" x="887.5" y="933.7021"/><rect fill="#FFFFFF" height="429.5591" style="stroke:#000000;stroke-width:1.0;" width="1439.5" x="142" y="820.1362"/><rect fill="#FFFFFF" height="353.1611" style="stroke:none;stroke-width:1.0;" width="1439.5" x="142" y="896.5342"/><rect fill="#FFFFFF" height="325.3618" style="stroke:#000000;stroke-width:1.0;" width="1439.5" x="142" y="1439.6919"/><rect fill="#FFFFFF" height="264.7632" style="stroke:none;stroke-width:1.0;" width="1439.5" x="142" y="1500.2905"/><line style="stroke:#000000;stroke-width:1.0;" x1="27" x2="27" y1="130.752" y2="1782.0537"/><line style="stroke:#000000;stroke-width:1.0;" x1="98" x2="98" y1="130.752" y2="1782.0537"/><line style="stroke:#000000;stroke-width:1.0;" x1="212" x2="212" y1="130.752" y2="1782.0537"/><line style="stroke:#000000;stroke-width:1.0;" x1="462" x2="462" y1="130.752" y2="1782.0537"/><line style="stroke:#000000;stroke-width:1.0;" x1="626.5" x2="626.5" y1="130.752" y2="1782.0537"/><line style="stroke:#000000;stroke-width:1.0;" x1="892" x2="892" y1="130.752" y2="1782.0537"/><line style="stroke:#000000;stroke-width:1.0;" x1="1193" x2="1193" y1="130.752" y2="1782.0537"/><line style="stroke:#000000;stroke-width:1.0;" x1="1383" x2="1383" y1="130.752" y2="1782.0537"/><text fill="#000000" font-family="Verdana" font-size="14" lengthAdjust="spacing" textLength="28" x="10" y="127.8125">&#29992;&#25143;</text><ellipse cx="27" cy="61.7373" fill="#FFFFFF" rx="8" ry="8" style="stroke:#000000;stroke-width:1.0;"/><path d="M27,69.7373 L27,96.7373 M14,77.7373 L40,77.7373 M27,96.7373 L14,111.7373 M27,96.7373 L40,111.7373 " fill="none" style="stroke:#000000;stroke-width:1.0;"/><text fill="#000000" font-family="Verdana" font-size="14" lengthAdjust="spacing" textLength="28" x="10" y="1795.1289">&#29992;&#25143;</text><ellipse cx="27" cy="1807.0684" fill="#FFFFFF" rx="8" ry="8" style="stroke:#000000;stroke-width:1.0;"/><path d="M27,1815.0684 L27,1842.0684 M14,1823.0684 L40,1823.0684 M27,1842.0684 L14,1857.0684 M27,1842.0684 L40,1857.0684 " fill="none" style="stroke:#000000;stroke-width:1.0;"/><rect fill="#FFFFFF" height="48.0293" rx="2.5" ry="2.5" style="stroke:#000000;stroke-width:1.0;" width="68" x="64" y="81.7227"/><text fill="#000000" font-family="Verdana" font-size="14" lengthAdjust="spacing" textLength="45" x="75.5" y="102.7979">main()</text><text fill="#000000" font-family="Verdana" font-size="14" lengthAdjust="spacing" textLength="54" x="71" y="119.8125">(&#32452;&#21512;&#26681;)</text><rect fill="#FFFFFF" height="48.0293" rx="2.5" ry="2.5" style="stroke:#000000;stroke-width:1.0;" width="68" x="64" y="1781.0537"/><text fill="#000000" font-family="Verdana" font-size="14" lengthAdjust="spacing" textLength="45" x="75.5" y="1802.1289">main()</text><text fill="#000000" font-family="Verdana" font-size="14" lengthAdjust="spacing" textLength="54" x="71" y="1819.1436">(&#32452;&#21512;&#26681;)</text><rect fill="#FFFFFF" height="48.0293" rx="2.5" ry="2.5" style="stroke:#000000;stroke-width:1.0;" width="101" x="162" y="81.7227"/><text fill="#000000" font-family="Verdana" font-size="14" lengthAdjust="spacing" textLength="87" x="169" y="102.7979">MainWindow</text><text fill="#000000" font-family="Verdana" font-size="14" lengthAdjust="spacing" textLength="68" x="178.5" y="119.8125">(&#35878;&#21329;&#35270;&#22270;)</text><rect fill="#FFFFFF" height="48.0293" rx="2.5" ry="2.5" style="stroke:#000000;stroke-width:1.0;" width="101" x="162" y="1781.0537"/><text fill="#000000" font-family="Verdana" font-size="14" lengthAdjust="spacing" textLength="87" x="169" y="1802.1289">MainWindow</text><text fill="#000000" font-family="Verdana" font-size="14" lengthAdjust="spacing" textLength="68" x="178.5" y="1819.1436">(&#35878;&#21329;&#35270;&#22270;)</text><rect fill="#FFFFFF" height="48.0293" rx="2.5" ry="2.5" style="stroke:#000000;stroke-width:1.0;" width="121" x="402" y="81.7227"/><text fill="#000000" font-family="Verdana" font-size="14" lengthAdjust="spacing" textLength="107" x="409" y="102.7979">LottoController</text><text fill="#000000" font-family="Verdana" font-size="14" lengthAdjust="spacing" textLength="96" x="414.5" y="119.8125">(&#36755;&#20837;&#20391;&#36866;&#37197;&#22120;)</text><rect fill="#FFFFFF" height="48.0293" rx="2.5" ry="2.5" style="stroke:#000000;stroke-width:1.0;" width="121" x="402" y="1781.0537"/><text fill="#000000" font-family="Verdana" font-size="14" lengthAdjust="spacing" textLength="107" x="409" y="1802.1289">LottoController</text><text fill="#000000" font-family="Verdana" font-size="14" lengthAdjust="spacing" textLength="96" x="414.5" y="1819.1436">(&#36755;&#20837;&#20391;&#36866;&#37197;&#22120;)</text><rect fill="#FFFFFF" height="48.0293" rx="2.5" ry="2.5" style="stroke:#000000;stroke-width:1.0;" width="122" x="565.5" y="81.7227"/><text fill="#000000" font-family="Verdana" font-size="14" lengthAdjust="spacing" textLength="108" x="572.5" y="102.7979">LottoInteractor</text><text fill="#000000" font-family="Verdana" font-size="14" lengthAdjust="spacing" textLength="82" x="585.5" y="119.8125">(&#29992;&#20363;&#20132;&#20114;&#22120;)</text><rect fill="#FFFFFF" height="48.0293" rx="2.5" ry="2.5" style="stroke:#000000;stroke-width:1.0;" width="122" x="565.5" y="1781.0537"/><text fill="#000000" font-family="Verdana" font-size="14" lengthAdjust="spacing" textLength="108" x="572.5" y="1802.1289">LottoInteractor</text><text fill="#000000" font-family="Verdana" font-size="14" lengthAdjust="spacing" textLength="82" x="585.5" y="1819.1436">(&#29992;&#20363;&#20132;&#20114;&#22120;)</text><rect fill="#FFFFFF" height="48.0293" rx="2.5" ry="2.5" style="stroke:#000000;stroke-width:1.0;" width="99" x="843" y="81.7227"/><text fill="#000000" font-family="Verdana" font-size="14" lengthAdjust="spacing" textLength="85" x="850" y="102.7979">LottoEngine</text><text fill="#000000" font-family="Verdana" font-size="14" lengthAdjust="spacing" textLength="68" x="858.5" y="119.8125">(&#39046;&#22495;&#26381;&#21153;)</text><rect fill="#FFFFFF" height="48.0293" rx="2.5" ry="2.5" style="stroke:#000000;stroke-width:1.0;" width="99" x="843" y="1781.0537"/><text fill="#000000" font-family="Verdana" font-size="14" lengthAdjust="spacing" textLength="85" x="850" y="1802.1289">LottoEngine</text><text fill="#000000" font-family="Verdana" font-size="14" lengthAdjust="spacing" textLength="68" x="858.5" y="1819.1436">(&#39046;&#22495;&#26381;&#21153;)</text><rect fill="#FFFFFF" height="48.0293" rx="2.5" ry="2.5" style="stroke:#000000;stroke-width:1.0;" width="201" x="1093" y="81.7227"/><text fill="#000000" font-family="Verdana" font-size="14" lengthAdjust="spacing" textLength="187" x="1100" y="102.7979">QSettingsTicketRepository</text><text fill="#000000" font-family="Verdana" font-size="14" lengthAdjust="spacing" textLength="96" x="1145.5" y="119.8125">(&#23384;&#20648;&#20391;&#36866;&#37197;&#22120;)</text><rect fill="#FFFFFF" height="48.0293" rx="2.5" ry="2.5" style="stroke:#000000;stroke-width:1.0;" width="201" x="1093" y="1781.0537"/><text fill="#000000" font-family="Verdana" font-size="14" lengthAdjust="spacing" textLength="187" x="1100" y="1802.1289">QSettingsTicketRepository</text><text fill="#000000" font-family="Verdana" font-size="14" lengthAdjust="spacing" textLength="96" x="1145.5" y="1819.1436">(&#23384;&#20648;&#20391;&#36866;&#37197;&#22120;)</text><rect fill="#FFFFFF" height="48.0293" rx="2.5" ry="2.5" style="stroke:#000000;stroke-width:1.0;" width="119" x="1324" y="81.7227"/><text fill="#000000" font-family="Verdana" font-size="14" lengthAdjust="spacing" textLength="105" x="1331" y="102.7979">LottoPresenter</text><text fill="#000000" font-family="Verdana" font-size="14" lengthAdjust="spacing" textLength="96" x="1335.5" y="119.8125">(&#36755;&#20986;&#20391;&#36866;&#37197;&#22120;)</text><rect fill="#FFFFFF" height="48.0293" rx="2.5" ry="2.5" style="stroke:#000000;stroke-width:1.0;" width="119" x="1324" y="1781.0537"/><text fill="#000000" font-family="Verdana" font-size="14" lengthAdjust="spacing" textLength="105" x="1331" y="1802.1289">LottoPresenter</text><text fill="#000000" font-family="Verdana" font-size="14" lengthAdjust="spacing" textLength="96" x="1335.5" y="1819.1436">(&#36755;&#20986;&#20391;&#36866;&#37197;&#22120;)</text><rect fill="#FFFFFF" height="163.7959" style="stroke:#000000;stroke-width:1.0;" width="10" x="621.5" y="376.9458"/><rect fill="#FFFFFF" height="451.5591" style="stroke:#000000;stroke-width:1.0;" width="10" x="621.5" y="805.1362"/><rect fill="#FFFFFF" height="390.1611" style="stroke:#000000;stroke-width:1.0;" width="10" x="621.5" y="1381.8926"/><rect fill="#FFFFFF" height="88.3979" style="stroke:#000000;stroke-width:1.0;" width="10" x="887.5" y="933.7021"/><path d="M391,145.752 L391,202.752 L862,202.752 L862,155.752 L852,145.752 L391,145.752 " fill="#FFFFFF" style="stroke:#000000;stroke-width:1.0;"/><path d="M852,145.752 L852,155.752 L862,155.752 L852,145.752 " fill="#FFFFFF" style="stroke:#000000;stroke-width:1.0;"/><text fill="#000000" font-family="Verdana" font-size="13" lengthAdjust="spacing" textLength="290" x="397" y="163.8218">&#25345;&#26377;&#21807;&#19968;&#29366;&#24577;&#28304; m_ticket (LottoTicket &#20540;&#31867;&#22411;)</text><text fill="#000000" font-family="Verdana" font-size="13" lengthAdjust="spacing" textLength="178" x="397" y="179.6211">&#23384;&#20648;/&#29992;&#20363;&#38388;&#21482;&#20256; LottoTicket</text><text fill="#000000" font-family="Verdana" font-size="13" lengthAdjust="spacing" textLength="450" x="397" y="195.4204">&#23454;&#29616;&#36755;&#20837;&#36793;&#30028; LottoInputBoundary, &#32463;&#36755;&#20986;&#36793;&#30028; LottoPresenterPort &#25512;&#36865;</text><path d="M241,213.1499 L241,238.1499 L683,238.1499 L683,223.1499 L673,213.1499 L241,213.1499 " fill="#FFFFFF" style="stroke:#000000;stroke-width:1.0;"/><path d="M673,213.1499 L673,223.1499 L683,223.1499 L673,213.1499 " fill="#FFFFFF" style="stroke:#000000;stroke-width:1.0;"/><text fill="#000000" font-family="Verdana" font-size="13" lengthAdjust="spacing" textLength="421" x="247" y="231.2197">&#20381;&#36182; LottoInputBoundary, &#25226; UI &#20107;&#20214;&#32763;&#35793;&#20026;&#29992;&#20363;&#35843;&#29992; (&#19981;&#21547;&#19994;&#21153;&#21028;&#26029;)</text><path d="M1217,248.9492 L1217,305.9492 L1549,305.9492 L1549,258.9492 L1539,248.9492 L1217,248.9492 " fill="#FFFFFF" style="stroke:#000000;stroke-width:1.0;"/><path d="M1539,248.9492 L1539,258.9492 L1549,258.9492 L1539,248.9492 " fill="#FFFFFF" style="stroke:#000000;stroke-width:1.0;"/><text fill="#000000" font-family="Verdana" font-size="13" lengthAdjust="spacing" textLength="311" x="1223" y="267.019">&#23454;&#29616; LottoPresenterPort, present() &#25512;&#23548;&#23637;&#31034;&#29366;&#24577;</text><text fill="#000000" font-family="Verdana" font-size="13" lengthAdjust="spacing" textLength="275" x="1223" y="282.8184">&#37325;&#21457; viewStateChanged (LottoViewState)</text><text fill="#000000" font-family="Verdana" font-size="13" lengthAdjust="spacing" textLength="274" x="1223" y="298.6177">&#35270;&#22270;&#21482;&#24863;&#30693; LottoViewState, &#19981;&#24863;&#30693;&#39046;&#22495;&#23454;&#20307;</text><rect fill="#FFFFFF" height="3" style="stroke:#FFFFFF;stroke-width:1.0;" width="1586.5" x="5" y="332.2468"/><line style="stroke:#000000;stroke-width:0.5;" x1="5" x2="1591.5" y1="332.2468" y2="332.2468"/><line style="stroke:#000000;stroke-width:0.5;" x1="5" x2="1591.5" y1="335.2468" y2="335.2468"/><rect fill="#FFFFFF" height="23.7993" style="stroke:#000000;stroke-width:1.0;" width="391" x="602.75" y="321.3472"/><text fill="#000000" font-family="Verdana" font-size="13" font-weight="bold" lengthAdjust="spacing" textLength="373" x="608.75" y="338.417">&#21551;&#21160;: &#24322;&#27493;&#24674;&#22797; (main() &#35013;&#37197;&#21518;&#35843;&#29992; load(), &#35270;&#22270;&#19981;&#39537;&#21160;&#29992;&#20363;)</text><polygon fill="#000000" points="609.5,372.9458,619.5,376.9458,609.5,380.9458,613.5,376.9458" style="stroke:#000000;stroke-width:1.0;"/><line style="stroke:#000000;stroke-width:1.0;" x1="98" x2="615.5" y1="376.9458" y2="376.9458"/><text fill="#000000" font-family="Verdana" font-size="13" lengthAdjust="spacing" textLength="39" x="105" y="372.2163">load()</text><line style="stroke:#000000;stroke-width:1.0;" x1="631.5" x2="673.5" y1="422.5444" y2="422.5444"/><line style="stroke:#000000;stroke-width:1.0;" x1="673.5" x2="673.5" y1="422.5444" y2="435.5444"/><line style="stroke:#000000;stroke-width:1.0;" x1="632.5" x2="673.5" y1="435.5444" y2="435.5444"/><polygon fill="#000000" points="642.5,431.5444,632.5,435.5444,642.5,439.5444,638.5,435.5444" style="stroke:#000000;stroke-width:1.0;"/><text fill="#000000" font-family="Verdana" font-size="13" lengthAdjust="spacing" textLength="171" x="638.5" y="402.0156">QTimer::singleShot(0, ...)</text><text fill="#000000" font-family="Verdana" font-size="13" lengthAdjust="spacing" textLength="124" x="638.5" y="417.8149">&#19981;&#38459;&#22622; Android &#21551;&#21160;</text><polygon fill="#000000" points="1181.5,461.3438,1191.5,465.3438,1181.5,469.3438,1185.5,465.3438" style="stroke:#000000;stroke-width:1.0;"/><line style="stroke:#000000;stroke-width:1.0;" x1="631.5" x2="1187.5" y1="465.3438" y2="465.3438"/><text fill="#000000" font-family="Verdana" font-size="13" lengthAdjust="spacing" textLength="39" x="638.5" y="460.6143">load()</text><polygon fill="#000000" points="642.5,506.9424,632.5,510.9424,642.5,514.9424,638.5,510.9424" style="stroke:#000000;stroke-width:1.0;"/><line style="stroke:#000000;stroke-width:1.0;stroke-dasharray:2.0,2.0;" x1="636.5" x2="1192.5" y1="510.9424" y2="510.9424"/><text fill="#000000" font-family="Verdana" font-size="13" lengthAdjust="spacing" textLength="76" x="648.5" y="490.4136">LottoTicket</text><text fill="#000000" font-family="Verdana" font-size="13" lengthAdjust="spacing" textLength="221" x="648.5" y="506.2129">(&#26410;&#38145;&#23450; &#8594; &#40664;&#35748;&#31080;: &#31354;&#21495;&#30721;/&#26080;&#25928;&#26102;&#38388;)</text><polygon fill="#000000" points="1371.5,536.7417,1381.5,540.7417,1371.5,544.7417,1375.5,540.7417" style="stroke:#000000;stroke-width:1.0;"/><line style="stroke:#000000;stroke-width:1.0;" x1="626.5" x2="1377.5" y1="540.7417" y2="540.7417"/><text fill="#000000" font-family="Verdana" font-size="13" lengthAdjust="spacing" textLength="300" x="633.5" y="536.0122">present(ticket) &#32463;&#36755;&#20986;&#31471;&#21475; LottoPresenterPort</text><line style="stroke:#000000;stroke-width:1.0;" x1="1383.5" x2="1425.5" y1="586.3403" y2="586.3403"/><line style="stroke:#000000;stroke-width:1.0;" x1="1425.5" x2="1425.5" y1="586.3403" y2="599.3403"/><line style="stroke:#000000;stroke-width:1.0;" x1="1384.5" x2="1425.5" y1="599.3403" y2="599.3403"/><polygon fill="#000000" points="1394.5,595.3403,1384.5,599.3403,1394.5,603.3403,1390.5,599.3403" style="stroke:#000000;stroke-width:1.0;"/><text fill="#000000" font-family="Verdana" font-size="13" lengthAdjust="spacing" textLength="120" x="1390.5" y="565.8115">present() override</text><text fill="#000000" font-family="Verdana" font-size="13" lengthAdjust="spacing" textLength="179" x="1390.5" y="581.6108">buildViewState(ticket) &#25512;&#23548;</text><polygon fill="#000000" points="223.5,625.1396,213.5,629.1396,223.5,633.1396,219.5,629.1396" style="stroke:#000000;stroke-width:1.0;"/><line style="stroke:#000000;stroke-width:1.0;" x1="217.5" x2="1382.5" y1="629.1396" y2="629.1396"/><text fill="#000000" font-family="Verdana" font-size="13" lengthAdjust="spacing" textLength="272" x="229.5" y="624.4102">emit viewStateChanged(LottoViewState)</text><line style="stroke:#000000;stroke-width:1.0;" x1="212.5" x2="254.5" y1="658.939" y2="658.939"/><line style="stroke:#000000;stroke-width:1.0;" x1="254.5" x2="254.5" y1="658.939" y2="671.939"/><line style="stroke:#000000;stroke-width:1.0;" x1="213.5" x2="254.5" y1="671.939" y2="671.939"/><polygon fill="#000000" points="223.5,667.939,213.5,671.939,223.5,675.939,219.5,671.939" style="stroke:#000000;stroke-width:1.0;"/><text fill="#000000" font-family="Verdana" font-size="13" lengthAdjust="spacing" textLength="236" x="219.5" y="654.2095">onViewStateChanged() &#26426;&#26800;&#20889;&#20837;&#25511;&#20214;</text><rect fill="#FFFFFF" height="3" style="stroke:#FFFFFF;stroke-width:1.0;" width="1586.5" x="5" y="700.8386"/><line style="stroke:#000000;stroke-width:0.5;" x1="5" x2="1591.5" y1="700.8386" y2="700.8386"/><line style="stroke:#000000;stroke-width:0.5;" x1="5" x2="1591.5" y1="703.8386" y2="703.8386"/><rect fill="#FFFFFF" height="23.7993" style="stroke:#000000;stroke-width:1.0;" width="169" x="713.75" y="689.939"/><text fill="#000000" font-family="Verdana" font-size="13" font-weight="bold" lengthAdjust="spacing" textLength="151" x="719.75" y="707.0088">&#29992;&#25143;&#28857;&#20987; [&#29983;&#25104;] (&#26410;&#38145;&#23450;)</text><polygon fill="#000000" points="200.5,741.5376,210.5,745.5376,200.5,749.5376,204.5,745.5376" style="stroke:#000000;stroke-width:1.0;"/><line style="stroke:#000000;stroke-width:1.0;" x1="27" x2="206.5" y1="745.5376" y2="745.5376"/><text fill="#000000" font-family="Verdana" font-size="13" lengthAdjust="spacing" textLength="45" x="34" y="740.8081">clicked</text><polygon fill="#000000" points="450.5,771.3369,460.5,775.3369,450.5,779.3369,454.5,775.3369" style="stroke:#000000;stroke-width:1.0;"/><line style="stroke:#000000;stroke-width:1.0;" x1="212.5" x2="456.5" y1="775.3369" y2="775.3369"/><text fill="#000000" font-family="Verdana" font-size="13" lengthAdjust="spacing" textLength="157" x="219.5" y="770.6074">onGenerateRequested()</text><polygon fill="#000000" points="609.5,801.1362,619.5,805.1362,609.5,809.1362,613.5,805.1362" style="stroke:#000000;stroke-width:1.0;"/><line style="stroke:#000000;stroke-width:1.0;" x1="462.5" x2="615.5" y1="805.1362" y2="805.1362"/><text fill="#000000" font-family="Verdana" font-size="13" lengthAdjust="spacing" textLength="140" x="469.5" y="800.4067">generateNewTicket()</text><path d="M142,820.1362 L206,820.1362 L206,827.9355 L196,837.9355 L142,837.9355 L142,820.1362 " fill="#FFFFFF" style="stroke:#000000;stroke-width:1.0;"/><rect fill="none" height="429.5591" style="stroke:#000000;stroke-width:1.0;" width="1439.5" x="142" y="820.1362"/><text fill="#000000" font-family="Verdana" font-size="13" font-weight="bold" lengthAdjust="spacing" textLength="19" x="157" y="834.2061">alt</text><text fill="#000000" font-family="Verdana" font-size="11" font-weight="bold" lengthAdjust="spacing" textLength="67" x="221" y="833.1953">[&#24403;&#21069;&#24050;&#38145;&#23450;]</text><line style="stroke:#000000;stroke-width:1.0;" x1="631.5" x2="673.5" y1="875.5342" y2="875.5342"/><line style="stroke:#000000;stroke-width:1.0;" x1="673.5" x2="673.5" y1="875.5342" y2="888.5342"/><line style="stroke:#000000;stroke-width:1.0;" x1="632.5" x2="673.5" y1="888.5342" y2="888.5342"/><polygon fill="#000000" points="642.5,884.5342,632.5,888.5342,642.5,892.5342,638.5,888.5342" style="stroke:#000000;stroke-width:1.0;"/><text fill="#000000" font-family="Verdana" font-size="13" lengthAdjust="spacing" textLength="109" x="638.5" y="855.0054">&#25298;&#32477;&#29983;&#25104; (return)</text><text fill="#000000" font-family="Verdana" font-size="13" lengthAdjust="spacing" textLength="204" x="638.5" y="870.8047">(&#25353;&#38062;&#31105;&#29992;&#21482;&#26159;&#36741;&#21161;, &#27492;&#22788;&#21028;&#23450;&#26435;&#23041;)</text><line style="stroke:#000000;stroke-width:1.0;stroke-dasharray:2.0,2.0;" x1="142" x2="1581.5" y1="897.5342" y2="897.5342"/><text fill="#000000" font-family="Verdana" font-size="11" font-weight="bold" lengthAdjust="spacing" textLength="45" x="147" y="908.5933">[&#26410;&#38145;&#23450;]</text><polygon fill="#000000" points="875.5,929.7021,885.5,933.7021,875.5,937.7021,879.5,933.7021" style="stroke:#000000;stroke-width:1.0;"/><line style="stroke:#000000;stroke-width:1.0;" x1="631.5" x2="881.5" y1="933.7021" y2="933.7021"/><text fill="#000000" font-family="Verdana" font-size="13" lengthAdjust="spacing" textLength="234" x="638.5" y="928.9727">generateBatch(GROUP_COUNT = 5)</text><line style="stroke:#000000;stroke-width:1.0;" x1="897.5" x2="939.5" y1="979.3008" y2="979.3008"/><line style="stroke:#000000;stroke-width:1.0;" x1="939.5" x2="939.5" y1="979.3008" y2="992.3008"/><line style="stroke:#000000;stroke-width:1.0;" x1="898.5" x2="939.5" y1="992.3008" y2="992.3008"/><polygon fill="#000000" points="908.5,988.3008,898.5,992.3008,908.5,996.3008,904.5,992.3008" style="stroke:#000000;stroke-width:1.0;"/><text fill="#000000" font-family="Verdana" font-size="13" lengthAdjust="spacing" textLength="277" x="904.5" y="958.772">std::shuffle(QRandomGenerator::global())</text><text fill="#000000" font-family="Verdana" font-size="13" lengthAdjust="spacing" textLength="113" x="904.5" y="974.5713">&#23545; iota &#21495;&#30721;&#27744;&#27927;&#29260;</text><polygon fill="#000000" points="642.5,1018.1001,632.5,1022.1001,642.5,1026.1001,638.5,1022.1001" style="stroke:#000000;stroke-width:1.0;"/><line style="stroke:#000000;stroke-width:1.0;stroke-dasharray:2.0,2.0;" x1="636.5" x2="891.5" y1="1022.1001" y2="1022.1001"/><text fill="#000000" font-family="Verdana" font-size="13" lengthAdjust="spacing" textLength="147" x="648.5" y="1017.3706">QVector&lt;LottoGroup&gt;</text><line style="stroke:#000000;stroke-width:1.0;" x1="631.5" x2="673.5" y1="1067.6987" y2="1067.6987"/><line style="stroke:#000000;stroke-width:1.0;" x1="673.5" x2="673.5" y1="1067.6987" y2="1080.6987"/><line style="stroke:#000000;stroke-width:1.0;" x1="632.5" x2="673.5" y1="1080.6987" y2="1080.6987"/><polygon fill="#000000" points="642.5,1076.6987,632.5,1080.6987,642.5,1084.6987,638.5,1080.6987" style="stroke:#000000;stroke-width:1.0;"/><text fill="#000000" font-family="Verdana" font-size="13" lengthAdjust="spacing" textLength="88" x="638.5" y="1047.1699">&#26356;&#26032; m_ticket</text><text fill="#000000" font-family="Verdana" font-size="13" lengthAdjust="spacing" textLength="242" x="638.5" y="1062.9692">(&#26102;&#38388;&#25139; UTC&#8594;&#26412;&#22320;, setLocked(false))</text><polygon fill="#000000" points="1371.5,1106.498,1381.5,1110.498,1371.5,1114.498,1375.5,1110.498" style="stroke:#000000;stroke-width:1.0;"/><line style="stroke:#000000;stroke-width:1.0;" x1="631.5" x2="1377.5" y1="1110.498" y2="1110.498"/><text fill="#000000" font-family="Verdana" font-size="13" lengthAdjust="spacing" textLength="300" x="638.5" y="1105.7686">present(ticket) &#32463;&#36755;&#20986;&#31471;&#21475; LottoPresenterPort</text><line style="stroke:#000000;stroke-width:1.0;" x1="1383.5" x2="1425.5" y1="1140.2974" y2="1140.2974"/><line style="stroke:#000000;stroke-width:1.0;" x1="1425.5" x2="1425.5" y1="1140.2974" y2="1153.2974"/><line style="stroke:#000000;stroke-width:1.0;" x1="1384.5" x2="1425.5" y1="1153.2974" y2="1153.2974"/><polygon fill="#000000" points="1394.5,1149.2974,1384.5,1153.2974,1394.5,1157.2974,1390.5,1153.2974" style="stroke:#000000;stroke-width:1.0;"/><text fill="#000000" font-family="Verdana" font-size="13" lengthAdjust="spacing" textLength="179" x="1390.5" y="1135.5679">buildViewState(ticket) &#25512;&#23548;</text><polygon fill="#000000" points="223.5,1194.896,213.5,1198.896,223.5,1202.896,219.5,1198.896" style="stroke:#000000;stroke-width:1.0;"/><line style="stroke:#000000;stroke-width:1.0;" x1="217.5" x2="1382.5" y1="1198.896" y2="1198.896"/><text fill="#000000" font-family="Verdana" font-size="13" lengthAdjust="spacing" textLength="272" x="229.5" y="1178.3672">emit viewStateChanged(LottoViewState)</text><text fill="#000000" font-family="Verdana" font-size="13" lengthAdjust="spacing" textLength="90" x="229.5" y="1194.1665">(5 &#32452;&#21495;&#30721;&#25991;&#26412;)</text><line style="stroke:#000000;stroke-width:1.0;" x1="212.5" x2="254.5" y1="1228.6953" y2="1228.6953"/><line style="stroke:#000000;stroke-width:1.0;" x1="254.5" x2="254.5" y1="1228.6953" y2="1241.6953"/><line style="stroke:#000000;stroke-width:1.0;" x1="213.5" x2="254.5" y1="1241.6953" y2="1241.6953"/><polygon fill="#000000" points="223.5,1237.6953,213.5,1241.6953,223.5,1245.6953,219.5,1241.6953" style="stroke:#000000;stroke-width:1.0;"/><text fill="#000000" font-family="Verdana" font-size="13" lengthAdjust="spacing" textLength="210" x="219.5" y="1223.9658">onViewStateChanged() &#20889;&#20837;&#26631;&#31614;</text><rect fill="#FFFFFF" height="3" style="stroke:#FFFFFF;stroke-width:1.0;" width="1586.5" x="5" y="1277.595"/><line style="stroke:#000000;stroke-width:0.5;" x1="5" x2="1591.5" y1="1277.595" y2="1277.595"/><line style="stroke:#000000;stroke-width:0.5;" x1="5" x2="1591.5" y1="1280.595" y2="1280.595"/><rect fill="#FFFFFF" height="23.7993" style="stroke:#000000;stroke-width:1.0;" width="155" x="720.75" y="1266.6953"/><text fill="#000000" font-family="Verdana" font-size="13" font-weight="bold" lengthAdjust="spacing" textLength="137" x="726.75" y="1283.7651">&#29992;&#25143;&#28857;&#20987; [&#38145;&#23450; / &#35299;&#38145;]</text><polygon fill="#000000" points="200.5,1318.2939,210.5,1322.2939,200.5,1326.2939,204.5,1322.2939" style="stroke:#000000;stroke-width:1.0;"/><line style="stroke:#000000;stroke-width:1.0;" x1="27" x2="206.5" y1="1322.2939" y2="1322.2939"/><text fill="#000000" font-family="Verdana" font-size="13" lengthAdjust="spacing" textLength="45" x="34" y="1317.5645">clicked</text><polygon fill="#000000" points="450.5,1348.0933,460.5,1352.0933,450.5,1356.0933,454.5,1352.0933" style="stroke:#000000;stroke-width:1.0;"/><line style="stroke:#000000;stroke-width:1.0;" x1="212.5" x2="456.5" y1="1352.0933" y2="1352.0933"/><text fill="#000000" font-family="Verdana" font-size="13" lengthAdjust="spacing" textLength="127" x="219.5" y="1347.3638">onLockRequested()</text><polygon fill="#000000" points="609.5,1377.8926,619.5,1381.8926,609.5,1385.8926,613.5,1381.8926" style="stroke:#000000;stroke-width:1.0;"/><line style="stroke:#000000;stroke-width:1.0;" x1="462.5" x2="615.5" y1="1381.8926" y2="1381.8926"/><text fill="#000000" font-family="Verdana" font-size="13" lengthAdjust="spacing" textLength="83" x="469.5" y="1377.1631">toggleLock()</text><line style="stroke:#000000;stroke-width:1.0;" x1="631.5" x2="673.5" y1="1411.6919" y2="1411.6919"/><line style="stroke:#000000;stroke-width:1.0;" x1="673.5" x2="673.5" y1="1411.6919" y2="1424.6919"/><line style="stroke:#000000;stroke-width:1.0;" x1="632.5" x2="673.5" y1="1424.6919" y2="1424.6919"/><polygon fill="#000000" points="642.5,1420.6919,632.5,1424.6919,642.5,1428.6919,638.5,1424.6919" style="stroke:#000000;stroke-width:1.0;"/><text fill="#000000" font-family="Verdana" font-size="13" lengthAdjust="spacing" textLength="214" x="638.5" y="1406.9624">setLocked(!m_ticket.isLocked())</text><path d="M142,1439.6919 L206,1439.6919 L206,1447.4912 L196,1457.4912 L142,1457.4912 L142,1439.6919 " fill="#FFFFFF" style="stroke:#000000;stroke-width:1.0;"/><rect fill="none" height="325.3618" style="stroke:#000000;stroke-width:1.0;" width="1439.5" x="142" y="1439.6919"/><text fill="#000000" font-family="Verdana" font-size="13" font-weight="bold" lengthAdjust="spacing" textLength="19" x="157" y="1453.7617">alt</text><text fill="#000000" font-family="Verdana" font-size="11" font-weight="bold" lengthAdjust="spacing" textLength="105" x="221" y="1452.751">[&#29366;&#24577;&#26410;&#21464;&#21270; (&#23432;&#21355;)]</text><line style="stroke:#000000;stroke-width:1.0;" x1="631.5" x2="673.5" y1="1479.2905" y2="1479.2905"/><line style="stroke:#000000;stroke-width:1.0;" x1="673.5" x2="673.5" y1="1479.2905" y2="1492.2905"/><line style="stroke:#000000;stroke-width:1.0;" x1="632.5" x2="673.5" y1="1492.2905" y2="1492.2905"/><polygon fill="#000000" points="642.5,1488.2905,632.5,1492.2905,642.5,1496.2905,638.5,1492.2905" style="stroke:#000000;stroke-width:1.0;"/><text fill="#000000" font-family="Verdana" font-size="13" lengthAdjust="spacing" textLength="122" x="638.5" y="1474.561">return (&#19981;&#37325;&#22797;&#20445;&#23384;)</text><line style="stroke:#000000;stroke-width:1.0;stroke-dasharray:2.0,2.0;" x1="142" x2="1581.5" y1="1501.2905" y2="1501.2905"/><text fill="#000000" font-family="Verdana" font-size="11" font-weight="bold" lengthAdjust="spacing" textLength="56" x="147" y="1512.3496">[&#29366;&#24577;&#21464;&#21270;]</text><polygon fill="#000000" points="1181.5,1533.4585,1191.5,1537.4585,1181.5,1541.4585,1185.5,1537.4585" style="stroke:#000000;stroke-width:1.0;"/><line style="stroke:#000000;stroke-width:1.0;" x1="631.5" x2="1187.5" y1="1537.4585" y2="1537.4585"/><text fill="#000000" font-family="Verdana" font-size="13" lengthAdjust="spacing" textLength="81" x="638.5" y="1532.729">save(ticket)</text><line style="stroke:#000000;stroke-width:1.0;" x1="1193.5" x2="1235.5" y1="1583.0571" y2="1583.0571"/><line style="stroke:#000000;stroke-width:1.0;" x1="1235.5" x2="1235.5" y1="1583.0571" y2="1596.0571"/><line style="stroke:#000000;stroke-width:1.0;" x1="1194.5" x2="1235.5" y1="1596.0571" y2="1596.0571"/><polygon fill="#000000" points="1204.5,1592.0571,1194.5,1596.0571,1204.5,1600.0571,1200.5,1596.0571" style="stroke:#000000;stroke-width:1.0;"/><text fill="#000000" font-family="Verdana" font-size="13" lengthAdjust="spacing" textLength="140" x="1200.5" y="1562.5283">&#38145;&#23450;&#26102;&#20889;&#20840;&#37327; + sync()</text><text fill="#000000" font-family="Verdana" font-size="13" lengthAdjust="spacing" textLength="166" x="1200.5" y="1578.3276">&#26410;&#38145;&#23450;&#20165;&#20889; isLocked=false</text><polygon fill="#000000" points="1371.5,1621.8564,1381.5,1625.8564,1371.5,1629.8564,1375.5,1625.8564" style="stroke:#000000;stroke-width:1.0;"/><line style="stroke:#000000;stroke-width:1.0;" x1="631.5" x2="1377.5" y1="1625.8564" y2="1625.8564"/><text fill="#000000" font-family="Verdana" font-size="13" lengthAdjust="spacing" textLength="300" x="638.5" y="1621.127">present(ticket) &#32463;&#36755;&#20986;&#31471;&#21475; LottoPresenterPort</text><line style="stroke:#000000;stroke-width:1.0;" x1="1383.5" x2="1425.5" y1="1655.6558" y2="1655.6558"/><line style="stroke:#000000;stroke-width:1.0;" x1="1425.5" x2="1425.5" y1="1655.6558" y2="1668.6558"/><line style="stroke:#000000;stroke-width:1.0;" x1="1384.5" x2="1425.5" y1="1668.6558" y2="1668.6558"/><polygon fill="#000000" points="1394.5,1664.6558,1384.5,1668.6558,1394.5,1672.6558,1390.5,1668.6558" style="stroke:#000000;stroke-width:1.0;"/><text fill="#000000" font-family="Verdana" font-size="13" lengthAdjust="spacing" textLength="179" x="1390.5" y="1650.9263">buildViewState(ticket) &#25512;&#23548;</text><polygon fill="#000000" points="223.5,1710.2544,213.5,1714.2544,223.5,1718.2544,219.5,1714.2544" style="stroke:#000000;stroke-width:1.0;"/><line style="stroke:#000000;stroke-width:1.0;" x1="217.5" x2="1382.5" y1="1714.2544" y2="1714.2544"/><text fill="#000000" font-family="Verdana" font-size="13" lengthAdjust="spacing" textLength="272" x="229.5" y="1693.7256">emit viewStateChanged(LottoViewState)</text><text fill="#000000" font-family="Verdana" font-size="13" lengthAdjust="spacing" textLength="122" x="229.5" y="1709.5249">(&#25353;&#38062;&#25991;&#23383;/&#20114;&#26021;&#29366;&#24577;)</text><line style="stroke:#000000;stroke-width:1.0;" x1="212.5" x2="254.5" y1="1744.0537" y2="1744.0537"/><line style="stroke:#000000;stroke-width:1.0;" x1="254.5" x2="254.5" y1="1744.0537" y2="1757.0537"/><line style="stroke:#000000;stroke-width:1.0;" x1="213.5" x2="254.5" y1="1757.0537" y2="1757.0537"/><polygon fill="#000000" points="223.5,1753.0537,213.5,1757.0537,223.5,1761.0537,219.5,1757.0537" style="stroke:#000000;stroke-width:1.0;"/><text fill="#000000" font-family="Verdana" font-size="13" lengthAdjust="spacing" textLength="210" x="219.5" y="1739.3242">onViewStateChanged() &#26356;&#26032;&#25353;&#38062;</text><!--SRC=[pLPRKnD957wVNt7qPMTg8-oBBzHYrPgYBAkyn73nORMiaRGmvMGcE-bW-KPG85nY415GWo06ZReGS1KXOUD_sPhkIVx5dfwU90HmrzgdpLDc-bo-Sxxld9vJT9Z42IHCtR2K7u0_Uiiok_npchseTW6RAx7f8a-liq8MEi5RMEMPEPRxugsbyR6-a6PRprbcacVNXUlUHxxw19ro9M-X20Ez4BPZ12AcRj7-ovU0v-RTocu8U6RHtPjs3zRWhcFVDJeC6sCbX5KgRdOCsd5W-Q9N_YhZAGerg4cWDvKWpYMRKljAAdwRE1U8HHoTsauRP4NH1yKx1C0pNq1FGh-Iq1rg31e9J02durYcgjsmLA_oaCrb-Dg-TbgONHRbjrcADzSDAsRVG-lQzXkMVLnxEu4v0eVhxUO-jB1jKSSsJU88d-eJDhxXLj_MHyVgurdsh2WzmzGnJ_2zQ54iIA0Nw1QARdN6BHVSydpByGIl7cl8i0XwrDSdsEegpsVPz2jftjDkVgsNK6fOGya-O_0keL6Ii9C6PhkFpcnpcOqLZqEDdf0nuf0a4LY34YVBn_qYYcBPb80zGXm8GnVmsJJFJx65ahitwatlyj4qByz1_1RriO3gHvR0W8qUU3iLzd86QPB0EcKxwakVMEwz4CuXSxJPUkazsfRThbNtlQUp43GqaQBdxPGLqvtx8V0gEGdti4spc8ZjK5HIiJwQFWmTgKBqRdMbzddnnAXyUXhwBu9Rda5jUryhjT9ZTwyiyTQs7uX1KDszB9lxuEuzHsfOfi0NDxL3EIAOG9Pm0gGG9EIZgWbqh7J0TfvwXRBiuGshFfbbkSSmOf1xlLId93oiMqCa5ZHqeF4QEocrY_tZ3rUzrGreDmW1WfGdKaY8oFqJXw-xErW22F9WZ6zk1Cj0bOC4jTVZWlYvHq6nfgt7L2q4CXq6hR_RGM_P40swknL531QSEUVhGfgBeJL640PAFDmukjPdn8dJrPL4pPgaTzYcwayXwEZem694tEKAU_KIVh5YZct40f3IEzeA78KpGRWsoQWy_rvkB_XhOXxgbUNQLi7Rm2AzTsMvtphvqXf_ck5BkoWxJGOML3NuaChLMhBoFfHOxlK972enSgY-oD50cYy3nuZX5DzE6MQiIKepXsHUkbw-ZhuaRj1Zf1_bN47JXeDj3Hornh3vCb_VPXFFS71mYQA0VRxbxlJ6zjba1NwLE_ycj5ecMUnlnXuq1SnOa2uO6TiA5ZI9ajzI94b5HiK_30WP2iwla7kIbdOTw2PkWZ-ViAai-_9H9bO0Vqrzy9bvhx8YuO7g49foBB7O-UnKVNxBUvF6EeJSbqkrwZYRVeUpkbbWXOSuWHYBhpnWnRIc43D9e5bQAqFF8OJdTJeuh5w8NksFt0fVxR_I1zrmLlDjcu1x_CUUXckInb2vmwaxTqoYNelgU8t4cpTMLzUGQT_MJLKJ6wwq3uPDTP2oupjh_DEIDpNRYDUOXW4YheQVVOwZ99aowJdVv92uUeuqwCKdlhZTNBAYDRwOUUOFwEyBe_1v_dUMtmv1aj1Bjk1GlQDZFpIj5UW_IbxuDvN-pwfkcdw_ih6Kio0kSDconKaiH6B-Dya7Ob-Rz3Qh2h5YxRDvNFt1akZ4VVOQ_z_yFkcBPdvBzjGUmdKcBBwnzrfad6fGrs4aWrT8ZHYCu0hDlsUvPJQx22hRoh3i1wrT078c_Fj7t1E5hFjr1I_KGFGoXWpGyXExCwcFD5doJwAD4zaEb97Vns9zCWS_GlA-DIW-gPfJv5R6yHmQeBjzKVt_9IKN1wg9RIvrudSNNzoGFVe-QSbnaq6EI-jl]--></g></svg>